<?xml version="1.0" encoding="UTF-8" standalone="no"?>
<!-- Created with Inkscape (http://www.inkscape.org/) -->

<svg
   xmlns:dc="http://purl.org/dc/elements/1.1/"
   xmlns:cc="http://creativecommons.org/ns#"
   xmlns:rdf="http://www.w3.org/1999/02/22-rdf-syntax-ns#"
   xmlns:svg="http://www.w3.org/2000/svg"
   xmlns="http://www.w3.org/2000/svg"
   xmlns:sodipodi="http://sodipodi.sourceforge.net/DTD/sodipodi-0.dtd"
   xmlns:inkscape="http://www.inkscape.org/namespaces/inkscape"
   width="420"
   height="280"
   viewBox="0 0 111.125 74.083336"
   version="1.1"
   id="svg8"
   inkscape:export-filename="C:\Users\DNO19_000\Documents\Projetos\unity_locallies\Files\Marketing\420x280\420x280.png"
   inkscape:export-xdpi="96"
   inkscape:export-ydpi="96"
   inkscape:version="0.92.5 (2060ec1f9f, 2020-04-08)"
   sodipodi:docname="420x280.svg">
  <defs
     id="defs2" />
  <sodipodi:namedview
     id="base"
     pagecolor="#ffffff"
     bordercolor="#666666"
     borderopacity="1.0"
     inkscape:pageopacity="0.0"
     inkscape:pageshadow="2"
     inkscape:zoom="1.4"
     inkscape:cx="103.78077"
     inkscape:cy="88.311895"
     inkscape:document-units="mm"
     inkscape:current-layer="layer3"
     showgrid="false"
     units="px"
     inkscape:window-width="1920"
     inkscape:window-height="1017"
     inkscape:window-x="-8"
     inkscape:window-y="-8"
     inkscape:window-maximized="1" />
  <metadata
     id="metadata5">
    <rdf:RDF>
      <cc:Work
         rdf:about="">
        <dc:format>image/svg+xml</dc:format>
        <dc:type
           rdf:resource="http://purl.org/dc/dcmitype/StillImage" />
        <dc:title></dc:title>
      </cc:Work>
    </rdf:RDF>
  </metadata>
  <g
     inkscape:groupmode="layer"
     id="layer3"
     inkscape:label="Layer 0"
     style="display:inline"
     transform="translate(0,31.75)">
    <rect
       style="fill:#1f1f1f;fill-opacity:1;stroke:#1f1f1f;stroke-width:0;stroke-miterlimit:4;stroke-dasharray:none;stroke-opacity:1"
       id="rect835"
       width="111.125"
       height="74.083336"
       x="6.2963761e-07"
       y="-31.75" />
  </g>
  <g
     inkscape:label="Layer 1"
     inkscape:groupmode="layer"
     id="layer1"
     transform="translate(0,-222.91665)"
     style="display:inline">
    <path
       style="display:inline;fill:#d97b2d;fill-opacity:1;stroke:#1f1f1f;stroke-width:0.79553139;stroke-linecap:butt;stroke-linejoin:miter;stroke-miterlimit:4;stroke-dasharray:none;stroke-opacity:1"
       d="m 9.6120438,262.21719 3.6077862,14.07033 8.057389,-4.56984 -1.563373,-3.48753 -3.848306,3.60778 -2.765968,-11.06388 z"
       id="path21"
       inkscape:connector-curvature="0"
       sodipodi:nodetypes="ccccccc"
       inkscape:export-xdpi="96"
       inkscape:export-ydpi="96" />
    <path
       style="display:inline;fill:#d97b2d;fill-opacity:1;stroke:#1f1f1f;stroke-width:0.79553139;stroke-linecap:butt;stroke-linejoin:miter;stroke-miterlimit:4;stroke-dasharray:none;stroke-opacity:1"
       d="m 42.073357,249.71871 c -9.034202,2.52099 -10.410782,19.75249 1.738241,14.73004 -0.270585,-0.96208 -0.485754,-1.59057 -0.7052,-2.63202 -5.657831,2.68364 -5.989992,-5.26886 -0.677785,-8.82523 -0.20679,-1.34428 -0.22726,-2.19942 -0.355256,-3.27279 z"
       id="path23"
       inkscape:connector-curvature="0"
       sodipodi:nodetypes="ccccc"
       inkscape:export-xdpi="96"
       inkscape:export-ydpi="96" />
    <path
       style="display:inline;fill:#d97b2d;fill-opacity:1;stroke:#1f1f1f;stroke-width:0.79553139;stroke-linecap:butt;stroke-linejoin:miter;stroke-miterlimit:4;stroke-dasharray:none;stroke-opacity:1"
       d="m 47.012312,241.64941 -1.046963,22.21514 4.047317,-1.25243 -0.360521,-8.05735 2.645665,-0.60126 2.121741,7.45588 3.600929,-1.23778 -7.478555,-19.42843 z m 2.721447,4.51663 2.060468,5.66665 -2.198655,0.48778 z"
       id="path25"
       inkscape:connector-curvature="0"
       sodipodi:nodetypes="ccccccccccccc"
       inkscape:export-xdpi="96"
       inkscape:export-ydpi="96" />
    <path
       style="display:inline;fill:#d97b2d;fill-opacity:1;stroke:#1f1f1f;stroke-width:0.79553139;stroke-linecap:butt;stroke-linejoin:miter;stroke-miterlimit:4;stroke-dasharray:none;stroke-opacity:1"
       d="m 78.101586,242.10005 1.648414,14.38383 2.299517,-0.19063 -0.516263,-13.7096 z"
       id="path27"
       inkscape:connector-curvature="0"
       sodipodi:nodetypes="ccccc"
       inkscape:export-xdpi="96"
       inkscape:export-ydpi="96" />
    <path
       style="display:inline;fill:#d97b2d;fill-opacity:1;stroke:#1f1f1f;stroke-width:0.79553139;stroke-linecap:butt;stroke-linejoin:miter;stroke-miterlimit:4;stroke-dasharray:none;stroke-opacity:1"
       d="m 84.398212,242.76577 -0.325559,13.37798 7.420872,0.05 v -3.44623 c -0.84182,0 -4.690123,-0.2406 -4.690123,-0.2406 l -0.120276,-1.68364 2.886229,0.12006 v -2.52545 l -2.525448,-0.36078 v -2.40522 l 4.56986,0.72158 0.240502,-3.12675 z"
       id="path29"
       inkscape:connector-curvature="0"
       sodipodi:nodetypes="ccccccccccccc"
       inkscape:export-xdpi="96"
       inkscape:export-ydpi="96" />
    <path
       style="display:inline;fill:#d97b2d;fill-opacity:1;stroke:#1f1f1f;stroke-width:0.79553139;stroke-linecap:butt;stroke-linejoin:miter;stroke-miterlimit:4;stroke-dasharray:none;stroke-opacity:1"
       d="m 102.92953,243.05609 c 0,0 -12.988031,-0.78168 -4.329334,6.85479 3.126744,2.88625 -3.60779,2.52545 -5.291426,3.00648 0,0.96208 -0.03005,2.21368 -0.02493,3.25554 3.129924,-0.22459 14.39518,0.49391 7.42087,-8.00579 -2.405193,-2.6457 2.28493,-2.70582 2.28493,-2.70582 z"
       id="path31"
       inkscape:connector-curvature="0"
       sodipodi:nodetypes="ccccccc"
       inkscape:export-xdpi="96"
       inkscape:export-ydpi="96" />
    <path
       style="display:inline;fill:#ffffff;fill-opacity:1;stroke:#1f1f1f;stroke-width:0.79553139;stroke-linecap:butt;stroke-linejoin:miter;stroke-miterlimit:4;stroke-dasharray:none;stroke-opacity:1"
       d="m 21.501201,253.68221 5.738273,-1.36167 -4.077051,-4.97392 z"
       id="path4576"
       inkscape:connector-curvature="0"
       sodipodi:nodetypes="cccc"
       inkscape:export-xdpi="96"
       inkscape:export-ydpi="96" />
    <path
       style="display:inline;fill:#ffffff;fill-opacity:1;stroke:#1f1f1f;stroke-width:0.79553139;stroke-linecap:butt;stroke-linejoin:miter;stroke-miterlimit:4;stroke-dasharray:none;stroke-opacity:1"
       d="m 32.131364,271.21926 -5.684065,1.5727 4.257985,4.81993 z"
       id="path4576-7"
       inkscape:connector-curvature="0"
       sodipodi:nodetypes="cccc"
       inkscape:export-xdpi="96"
       inkscape:export-ydpi="96" />
    <ellipse
       style="display:inline;fill:#d97b2d;fill-opacity:1;stroke:#1f1f1f;stroke-width:0.79553139;stroke-miterlimit:4;stroke-dasharray:none;stroke-opacity:1"
       id="path4607"
       cx="26.90753"
       cy="262.51172"
       rx="6.4202433"
       ry="7.738307"
       inkscape:export-xdpi="96"
       inkscape:export-ydpi="96" />
    <path
       style="display:inline;fill:#ffffff;fill-opacity:1;stroke:#1f1f1f;stroke-width:0.79553139;stroke-linecap:butt;stroke-linejoin:miter;stroke-miterlimit:4;stroke-dasharray:none;stroke-opacity:1"
       d="m 24.483999,261.91649 c 0,0 1.190508,0.51023 1.36058,1.1055 0.170071,0.59524 0,2.38099 0.510218,2.72113 0.510219,0.34014 1.360581,1.44563 1.360581,1.02044 0,-0.42518 -0.510216,-0.59525 -0.425181,-2.38099 0.08504,-1.7858 1.615692,-2.63615 1.020438,-3.40146 -0.595257,-0.76536 -0.255112,-1.27557 -1.275547,-1.7858 -1.020438,-0.5102 -2.466054,-0.85034 -1.445618,-1.36057 1.020436,-0.51021 1.8708,-1.02044 1.8708,-1.61568 0,-0.59525 -0.08504,-1.61571 -1.615691,-1.27555 -1.530654,0.34014 -3.401452,1.44564 -3.486489,2.29598 -0.08504,0.85037 1.190508,0.85037 1.615692,1.87081 0.42518,1.02042 0.340143,1.70072 0.510217,2.80619 z"
       id="path4609"
       inkscape:connector-curvature="0"
       inkscape:export-xdpi="96"
       inkscape:export-ydpi="96" />
    <path
       style="display:inline;fill:#d97b2d;fill-opacity:1;stroke:#1f1f1f;stroke-width:0.79553139;stroke-linecap:butt;stroke-linejoin:miter;stroke-miterlimit:4;stroke-dasharray:none;stroke-opacity:1"
       d="m 57.074414,245.96451 2.836413,13.56017 7.717247,-1.80389 -0.366823,-3.42918 -5.426271,1.98607 -0.89767,-11.68583 z"
       id="path21-0"
       inkscape:connector-curvature="0"
       sodipodi:nodetypes="ccccccc"
       inkscape:export-xdpi="96"
       inkscape:export-ydpi="96" />
    <path
       style="display:inline;fill:#ffffff;fill-opacity:1;stroke:#1f1f1f;stroke-width:0.79553139;stroke-linecap:butt;stroke-linejoin:miter;stroke-miterlimit:4;stroke-dasharray:none;stroke-opacity:1"
       d="m 78.316186,233.51022 -0.340146,6.20765 c 0,0 4.9317,-0.30395 5.612394,0.0849 1.190515,0.68027 3.061309,-0.0849 4.932113,-0.8504 0.255103,-1.87078 0.765328,-6.88789 0.765328,-6.88789 0,0 -3.826637,2.63614 -4.932111,1.70071 -1.105475,-0.93538 -4.762034,-0.59524 -6.037578,-0.2551 z"
       id="path4661"
       inkscape:connector-curvature="0"
       sodipodi:nodetypes="ccsccsc"
       inkscape:export-xdpi="96"
       inkscape:export-ydpi="96" />
    <path
       style="display:inline;fill:#d97b2d;fill-opacity:1;stroke:#1f1f1f;stroke-width:0.79553139;stroke-linecap:butt;stroke-linejoin:miter;stroke-miterlimit:4;stroke-dasharray:none;stroke-opacity:1"
       d="m 67.364318,243.56484 2.156128,13.90026 8.227461,-0.7834 -0.706968,-3.85437 -5.426266,1.98606 -0.132354,-12.19603 z"
       id="path21-0-7"
       inkscape:connector-curvature="0"
       sodipodi:nodetypes="ccccccc"
       inkscape:export-xdpi="96"
       inkscape:export-ydpi="96" />
    <circle
       style="display:inline;fill:#d97b2d;fill-opacity:1;stroke:#1f1f1f;stroke-width:0.79553139;stroke-miterlimit:4;stroke-dasharray:none;stroke-opacity:1"
       id="path4701"
       cx="83.399147"
       cy="236.60861"
       r="1.8640229"
       inkscape:export-xdpi="96"
       inkscape:export-ydpi="96" />
    <flowRoot
       xml:space="preserve"
       id="flowRoot2011"
       style="font-style:normal;font-weight:normal;font-size:40px;line-height:1.25;font-family:sans-serif;letter-spacing:0px;word-spacing:0px;fill:#000000;fill-opacity:1;stroke:none"
       transform="matrix(0.26458333,0,0,0.26458333,0,254.66665)"><flowRegion
         id="flowRegion2013"><rect
           id="rect2015"
           width="124.24876"
           height="95.964493"
           x="444.46713"
           y="100.401" /></flowRegion><flowPara
         id="flowPara2017" /></flowRoot>  </g>
  <g
     inkscape:groupmode="layer"
     id="layer2"
     inkscape:label="Layer 2"
     style="display:inline"
     transform="translate(0,31.75)">
    <text
       xml:space="preserve"
       style="font-style:normal;font-weight:normal;font-size:25.66882133px;line-height:0.25;font-family:sans-serif;text-align:end;letter-spacing:0px;word-spacing:0px;text-anchor:end;display:inline;fill:#d97b2d;fill-opacity:1;stroke:none;stroke-width:0.64172053"
       x="101.12418"
       y="18.435026"
       id="text2009"
       inkscape:export-xdpi="96"
       inkscape:export-ydpi="96"><tspan
         sodipodi:role="line"
         x="101.12418"
         y="18.435026"
         style="font-style:normal;font-variant:normal;font-weight:normal;font-stretch:normal;font-size:6.84501934px;line-height:0.25;font-family:Coolvetica;-inkscape-font-specification:Coolvetica;text-align:end;text-anchor:end;fill:#d97b2d;fill-opacity:1;stroke-width:0.64172053"
         id="tspan2022">A localization system</tspan><tspan
         sodipodi:role="line"
         x="101.12418"
         y="28.047066"
         style="font-style:normal;font-variant:normal;font-weight:normal;font-stretch:normal;font-size:6.84501934px;line-height:0.25;font-family:Coolvetica;-inkscape-font-specification:Coolvetica;text-align:end;text-anchor:end;fill:#d97b2d;fill-opacity:1;stroke-width:0.64172053"
         id="tspan2026">for Unity</tspan></text>
  </g>
</svg>
