<?xml version="1.0" encoding="UTF-8" standalone="no"?>
<!-- Created with Inkscape (http://www.inkscape.org/) -->

<svg
   xmlns:dc="http://purl.org/dc/elements/1.1/"
   xmlns:cc="http://creativecommons.org/ns#"
   xmlns:rdf="http://www.w3.org/1999/02/22-rdf-syntax-ns#"
   xmlns:svg="http://www.w3.org/2000/svg"
   xmlns="http://www.w3.org/2000/svg"
   xmlns:sodipodi="http://sodipodi.sourceforge.net/DTD/sodipodi-0.dtd"
   xmlns:inkscape="http://www.inkscape.org/namespaces/inkscape"
   width="1200"
   height="630"
   viewBox="0 0 317.5 166.68751"
   version="1.1"
   id="svg8"
   inkscape:export-filename="C:\Users\DNO19_000\Documents\Projetos\unity_locallies\Files\Marketing\1200x630\1200x630.png"
   inkscape:export-xdpi="95.942886"
   inkscape:export-ydpi="95.942886"
   inkscape:version="0.92.5 (2060ec1f9f, 2020-04-08)"
   sodipodi:docname="1200x630.svg">
  <defs
     id="defs2" />
  <sodipodi:namedview
     id="base"
     pagecolor="#ffffff"
     bordercolor="#666666"
     borderopacity="1.0"
     inkscape:pageopacity="0.0"
     inkscape:pageshadow="2"
     inkscape:zoom="0.7"
     inkscape:cx="328.03903"
     inkscape:cy="323.7501"
     inkscape:document-units="mm"
     inkscape:current-layer="layer3"
     showgrid="false"
     units="px"
     inkscape:window-width="1920"
     inkscape:window-height="1017"
     inkscape:window-x="-8"
     inkscape:window-y="-8"
     inkscape:window-maximized="1" />
  <metadata
     id="metadata5">
    <rdf:RDF>
      <cc:Work
         rdf:about="">
        <dc:format>image/svg+xml</dc:format>
        <dc:type
           rdf:resource="http://purl.org/dc/dcmitype/StillImage" />
        <dc:title></dc:title>
      </cc:Work>
    </rdf:RDF>
  </metadata>
  <g
     inkscape:groupmode="layer"
     id="layer3"
     inkscape:label="Layer 0"
     style="display:inline"
     transform="translate(0,124.35417)"
     sodipodi:insensitive="true">
    <rect
       style="fill:#1f1f1f;fill-opacity:1;stroke:#1f1f1f;stroke-width:0;stroke-miterlimit:4;stroke-dasharray:none;stroke-opacity:1"
       id="rect835"
       width="317.689"
       height="166.6875"
       x="1.3182414e-06"
       y="-124.35416" />
  </g>
  <g
     inkscape:label="Layer 1"
     inkscape:groupmode="layer"
     id="layer1"
     transform="translate(0,-130.31248)"
     style="display:inline">
    <path
       style="display:inline;fill:#d97b2d;fill-opacity:1;stroke:#1f1f1f;stroke-width:2.36344981;stroke-linecap:butt;stroke-linejoin:miter;stroke-miterlimit:4;stroke-dasharray:none;stroke-opacity:1"
       d="m 17.810522,225.44877 10.838495,41.33845 24.20597,-13.42613 -4.696677,-10.24632 -11.561064,10.5996 -8.309509,-32.50554 z"
       id="path21"
       inkscape:connector-curvature="0"
       sodipodi:nodetypes="ccccccc"
       inkscape:export-xdpi="96"
       inkscape:export-ydpi="96" />
    <path
       style="display:inline;fill:#d97b2d;fill-opacity:1;stroke:#1f1f1f;stroke-width:2.36344981;stroke-linecap:butt;stroke-linejoin:miter;stroke-miterlimit:4;stroke-dasharray:none;stroke-opacity:1"
       d="m 115.33065,188.72839 c -27.140506,7.40663 -31.276022,58.03257 5.22202,43.27667 -0.81289,-2.82658 -1.45931,-4.67308 -2.11856,-7.73284 -16.99723,7.88449 -17.99511,-15.47985 -2.0362,-25.92842 -0.62124,-3.94948 -0.68274,-6.46187 -1.06726,-9.61541 z"
       id="path23"
       inkscape:connector-curvature="0"
       sodipodi:nodetypes="ccccc"
       inkscape:export-xdpi="96"
       inkscape:export-ydpi="96" />
    <path
       style="display:inline;fill:#d97b2d;fill-opacity:1;stroke:#1f1f1f;stroke-width:2.36344981;stroke-linecap:butt;stroke-linejoin:miter;stroke-miterlimit:4;stroke-dasharray:none;stroke-opacity:1"
       d="m 130.16824,165.02088 -3.14529,65.26781 12.15894,-3.67963 -1.08309,-23.67239 7.94811,-1.76649 6.37413,21.90528 10.81789,-3.63659 -22.46704,-57.08048 z m 8.17575,13.2698 6.19006,16.64855 -6.6052,1.43309 z"
       id="path25"
       inkscape:connector-curvature="0"
       sodipodi:nodetypes="ccccccccccccc"
       inkscape:export-xdpi="96"
       inkscape:export-ydpi="96" />
    <path
       style="display:inline;fill:#d97b2d;fill-opacity:1;stroke:#1f1f1f;stroke-width:2.36344981;stroke-linecap:butt;stroke-linejoin:miter;stroke-miterlimit:4;stroke-dasharray:none;stroke-opacity:1"
       d="m 223.56649,166.34485 4.95217,42.25952 6.9082,-0.56008 -1.55096,-40.27863 z"
       id="path27"
       inkscape:connector-curvature="0"
       sodipodi:nodetypes="ccccc"
       inkscape:export-xdpi="96"
       inkscape:export-ydpi="96" />
    <path
       style="display:inline;fill:#d97b2d;fill-opacity:1;stroke:#1f1f1f;stroke-width:2.36344981;stroke-linecap:butt;stroke-linejoin:miter;stroke-miterlimit:4;stroke-dasharray:none;stroke-opacity:1"
       d="m 242.48278,168.30073 -0.97804,39.30435 22.29376,0.14689 v -10.12498 c -2.529,0 -14.09004,-0.70688 -14.09004,-0.70688 l -0.36134,-4.94651 8.67079,0.35273 v -7.41974 l -7.58693,-1.05996 v -7.06652 l 13.72874,2.12 0.72252,-9.18635 z"
       id="path29"
       inkscape:connector-curvature="0"
       sodipodi:nodetypes="ccccccccccccc"
       inkscape:export-xdpi="96"
       inkscape:export-ydpi="96" />
    <path
       style="display:inline;fill:#d97b2d;fill-opacity:1;stroke:#1f1f1f;stroke-width:2.36344981;stroke-linecap:butt;stroke-linejoin:miter;stroke-miterlimit:4;stroke-dasharray:none;stroke-opacity:1"
       d="m 298.1545,169.15369 c 0,0 -39.01859,-2.29657 -13.00618,20.13929 9.39336,8.47977 -10.8385,7.41974 -15.89647,8.833 0,2.82658 -0.0903,6.50377 -0.0749,9.56473 9.40291,-0.65983 43.24595,1.45111 22.29376,-23.5209 -7.22567,-7.77305 6.86437,-7.94967 6.86437,-7.94967 z"
       id="path31"
       inkscape:connector-curvature="0"
       sodipodi:nodetypes="ccccccc"
       inkscape:export-xdpi="96"
       inkscape:export-ydpi="96" />
    <path
       style="display:inline;fill:#ffffff;fill-opacity:1;stroke:#1f1f1f;stroke-width:2.36344981;stroke-linecap:butt;stroke-linejoin:miter;stroke-miterlimit:4;stroke-dasharray:none;stroke-opacity:1"
       d="m 53.527873,200.3731 17.238894,-4.00058 -12.248258,-14.6133 z"
       id="path4576"
       inkscape:connector-curvature="0"
       sodipodi:nodetypes="cccc"
       inkscape:export-xdpi="96"
       inkscape:export-ydpi="96" />
    <path
       style="display:inline;fill:#ffffff;fill-opacity:1;stroke:#1f1f1f;stroke-width:2.36344981;stroke-linecap:butt;stroke-linejoin:miter;stroke-miterlimit:4;stroke-dasharray:none;stroke-opacity:1"
       d="m 85.462962,251.89673 -17.076043,4.62057 12.791819,14.1609 z"
       id="path4576-7"
       inkscape:connector-curvature="0"
       sodipodi:nodetypes="cccc"
       inkscape:export-xdpi="96"
       inkscape:export-ydpi="96" />
    <ellipse
       style="display:inline;fill:#d97b2d;fill-opacity:1;stroke:#1f1f1f;stroke-width:2.36344981;stroke-miterlimit:4;stroke-dasharray:none;stroke-opacity:1"
       id="path4607"
       cx="69.769539"
       cy="226.31409"
       rx="19.287666"
       ry="22.735048"
       inkscape:export-xdpi="96"
       inkscape:export-ydpi="96" />
    <path
       style="display:inline;fill:#ffffff;fill-opacity:1;stroke:#1f1f1f;stroke-width:2.36344981;stroke-linecap:butt;stroke-linejoin:miter;stroke-miterlimit:4;stroke-dasharray:none;stroke-opacity:1"
       d="m 62.488781,224.56531 c 0,0 3.576519,1.49905 4.087449,3.24795 0.510927,1.7488 0,6.9953 1.532794,7.99464 1.532798,0.99932 4.087453,4.24725 4.087453,2.99804 0,-1.24918 -1.532789,-1.74883 -1.277328,-6.99532 0.255476,-5.24666 4.853855,-7.74498 3.065595,-9.99344 -1.788267,-2.24861 -0.766406,-3.74762 -3.831992,-5.24666 -3.065595,-1.49896 -7.408508,-2.49829 -4.342919,-3.99734 3.065589,-1.49899 5.620249,-2.99805 5.620249,-4.74686 0,-1.74883 -0.255476,-4.74692 -4.853852,-3.74753 -4.598383,0.99932 -10.218627,4.24727 -10.474095,6.74554 -0.255477,2.49839 3.576519,2.49839 4.853855,5.49643 1.277324,2.99798 1.021857,4.99668 1.532791,8.24455 z"
       id="path4609"
       inkscape:connector-curvature="0"
       inkscape:export-xdpi="96"
       inkscape:export-ydpi="96" />
    <path
       style="display:inline;fill:#d97b2d;fill-opacity:1;stroke:#1f1f1f;stroke-width:2.36344981;stroke-linecap:butt;stroke-linejoin:miter;stroke-miterlimit:4;stroke-dasharray:none;stroke-opacity:1"
       d="m 160.39676,177.69859 8.52114,39.83961 23.18411,-5.2998 L 191,202.1635 l -16.30157,5.83505 -2.69679,-34.33282 z"
       id="path21-0"
       inkscape:connector-curvature="0"
       sodipodi:nodetypes="ccccccc"
       inkscape:export-xdpi="96"
       inkscape:export-ydpi="96" />
    <path
       style="display:inline;fill:#ffffff;fill-opacity:1;stroke:#1f1f1f;stroke-width:2.36344981;stroke-linecap:butt;stroke-linejoin:miter;stroke-miterlimit:4;stroke-dasharray:none;stroke-opacity:1"
       d="m 224.21119,141.10805 -1.02186,18.23799 c 0,0 14.81579,-0.89301 16.86072,0.24943 3.57654,1.99863 9.19678,-0.24943 14.81704,-2.49846 0.76638,-5.49632 2.29919,-20.23653 2.29919,-20.23653 0,0 -11.49596,7.74495 -14.81703,4.99667 -3.32105,-2.74814 -14.30607,-1.74882 -18.13806,-0.7495 z"
       id="path4661"
       inkscape:connector-curvature="0"
       sodipodi:nodetypes="ccsccsc"
       inkscape:export-xdpi="96"
       inkscape:export-ydpi="96" />
    <path
       style="display:inline;fill:#d97b2d;fill-opacity:1;stroke:#1f1f1f;stroke-width:2.36344981;stroke-linecap:butt;stroke-linejoin:miter;stroke-miterlimit:4;stroke-dasharray:none;stroke-opacity:1"
       d="m 191.30963,170.64839 6.47744,40.83879 24.71691,-2.30162 -2.12388,-11.32409 -16.30156,5.83502 -0.39762,-35.83178 z"
       id="path21-0-7"
       inkscape:connector-curvature="0"
       sodipodi:nodetypes="ccccccc"
       inkscape:export-xdpi="96"
       inkscape:export-ydpi="96" />
    <ellipse
       style="display:inline;fill:#d97b2d;fill-opacity:1;stroke:#1f1f1f;stroke-width:2.36344981;stroke-miterlimit:4;stroke-dasharray:none;stroke-opacity:1"
       id="path4701"
       cx="239.4814"
       cy="150.21109"
       inkscape:export-xdpi="96"
       inkscape:export-ydpi="96"
       rx="5.5998893"
       ry="5.4764762" />
    <flowRoot
       xml:space="preserve"
       id="flowRoot2011"
       style="font-style:normal;font-weight:normal;font-size:40px;line-height:1.25;font-family:sans-serif;letter-spacing:0px;word-spacing:0px;fill:#000000;fill-opacity:1;stroke:none"
       transform="matrix(0.26458333,0,0,0.26458333,0,254.66665)"><flowRegion
         id="flowRegion2013"><rect
           id="rect2015"
           width="124.24876"
           height="95.964493"
           x="444.46713"
           y="100.401" /></flowRegion><flowPara
         id="flowPara2017" /></flowRoot>  </g>
  <g
     inkscape:groupmode="layer"
     id="layer2"
     inkscape:label="Layer 2"
     style="display:inline"
     transform="translate(0,124.35417)">
    <text
       xml:space="preserve"
       style="font-style:normal;font-weight:normal;font-size:76.2596817px;line-height:0.25;font-family:sans-serif;text-align:end;letter-spacing:0px;word-spacing:0px;text-anchor:end;display:inline;fill:#d97b2d;fill-opacity:1;stroke:none;stroke-width:1.90649211"
       x="289.48724"
       y="2.7915275"
       id="text2009"
       inkscape:export-xdpi="96"
       inkscape:export-ydpi="96"
       transform="scale(1.0112048,0.98891936)"><tspan
         sodipodi:role="line"
         x="289.48724"
         y="2.7915275"
         style="font-style:normal;font-variant:normal;font-weight:normal;font-stretch:normal;font-size:20.33591652px;line-height:0.25;font-family:Coolvetica;-inkscape-font-specification:Coolvetica;text-align:end;text-anchor:end;fill:#d97b2d;fill-opacity:1;stroke-width:1.90649211"
         id="tspan2022">A localization system</tspan><tspan
         sodipodi:role="line"
         x="289.48724"
         y="31.348005"
         style="font-style:normal;font-variant:normal;font-weight:normal;font-stretch:normal;font-size:20.33591652px;line-height:0.25;font-family:Coolvetica;-inkscape-font-specification:Coolvetica;text-align:end;text-anchor:end;fill:#d97b2d;fill-opacity:1;stroke-width:1.90649211"
         id="tspan2026">for Unity</tspan></text>
  </g>
</svg>
